# Blender v2.70 (sub 0) OBJ File: ''
# www.blender.org
o Cylinder
v 0.000000 -1.000000 -1.000000
v 0.000000 1.000000 -1.000000
v 0.866025 -1.000000 -0.500000
v 0.866025 1.000000 -0.500000
v 0.866025 -1.000000 0.500000
v 0.866025 1.000000 0.500000
v -0.000000 -1.000000 1.000000
v -0.000000 1.000000 1.000000
v -0.866025 -1.000000 0.500000
v -0.866025 1.000000 0.500000
v -0.866025 -1.000000 -0.500000
v -0.866025 1.000000 -0.500000
vt 0.640333 0.359667
vt 0.640332 0.182491
vt 0.994685 0.182491
vt 0.687807 0.724650
vt 0.510631 0.724650
vt 0.510631 0.370298
vt 0.182491 0.724650
vt 0.005315 0.724650
vt 0.005315 0.370298
vt 0.500000 0.724650
vt 0.322824 0.724650
vt 0.322824 0.370298
vt 0.005315 0.093903
vt 0.312193 0.271079
vt 0.158754 0.359668
vt 0.875613 0.724650
vt 0.698437 0.724650
vt 0.698437 0.370298
vt 0.677176 0.735281
vt 0.677176 0.912457
vt 0.322824 0.912457
vt 0.629702 0.093903
vt 0.322824 0.271079
vt 0.322824 0.093903
vt 0.994685 0.359667
vt 0.687807 0.370298
vt 0.182491 0.370298
vt 0.500000 0.370298
vt 0.158754 0.005315
vt 0.312193 0.093903
vt 0.005315 0.271080
vt 0.875613 0.370298
vt 0.322824 0.735281
vt 0.629702 0.271079
vt 0.476263 0.359667
vt 0.476263 0.005315
vn 0.500000 0.000000 -0.866025
vn 1.000000 0.000000 0.000000
vn 0.500000 0.000000 0.866025
vn -0.500000 0.000000 0.866025
vn 0.000000 1.000000 0.000000
vn -0.500000 0.000000 -0.866025
vn -1.000000 0.000000 0.000000
vn 0.000000 -1.000000 -0.000000
vn 0.500000 0.000000 0.866026
s off
f 2/1/1 4/2/1 3/3/1
f 4/4/2 6/5/2 5/6/2
f 6/7/3 8/8/3 7/9/3
f 8/10/4 10/11/4 9/12/4
f 8/13/5 2/14/5 12/15/5
f 12/16/6 2/17/6 1/18/6
f 10/19/7 12/20/7 11/21/7
f 9/22/8 3/23/8 5/24/8
f 1/25/1 2/1/1 3/3/1
f 3/26/2 4/4/2 5/6/2
f 5/27/9 6/7/9 7/9/9
f 7/28/4 8/10/4 9/12/4
f 6/29/5 4/30/5 2/14/5
f 10/31/5 8/13/5 12/15/5
f 6/29/5 2/14/5 8/13/5
f 11/32/6 12/16/6 1/18/6
f 9/33/7 10/19/7 11/21/7
f 11/34/8 1/35/8 3/23/8
f 7/36/8 9/22/8 5/24/8
f 11/34/8 3/23/8 9/22/8
